<svg data-name="图层 1" xmlns="http://www.w3.org/2000/svg" viewBox="0 0 40 40"><path d="M20 9.27a3 3 0 1 1-3 3 3 3 0 0 1 3-3zm0-3a6.18 6.18 0 0 0-6 6.33c0 2.11 2 5.17 6 9 4-3.8 6-6.86 6-9a6.18 6.18 0 0 0-6-6.33zm0-4A10.17 10.17 0 0 1 30 12.6c0 3.81-2.95 8.11-8.68 13.17l-.66.58a1 1 0 0 1-1.32 0l-.66-.58C13 20.71 10 16.41 10 12.6A10.17 10.17 0 0 1 20 2.27zm17 8V31.8a2 2 0 0 1-1.29 1.87L25.4 37.6a2 2 0 0 1-1.6-.08l-8.7-4.32-9.33 3.91A2 2 0 0 1 3 35.26v-22h4v18.87l8.24-3.35L25 33.52l8-3.07V10.28z" fill-rule="evenodd"/></svg>