<svg data-name="图层 1" xmlns="http://www.w3.org/2000/svg" viewBox="0 0 40 40"><path d="M8.5 21h-3v12h3zm4-1v13H30l4.5-10.81V19H24a3.41 3.41 0 0 1-2.86-1.32 3.35 3.35 0 0 1-.47-3l1.61-5.51c.09-.36-.29-.73-.6-1l-.45-.35zm11.87-4.73h10.77a3.36 3.36 0 0 1 3.36 3.34v3.52a3.5 3.5 0 0 1-.25 1.27L33 36a1.68 1.68 0 0 1-1.55 1H3.18a1.68 1.68 0 0 1-1.68-1.67v-16.7A1.68 1.68 0 0 1 3.18 17H9a1.68 1.68 0 0 0 1.37-.7l9.21-12.95a.85.85 0 0 1 1.07-.26L23.7 4.6a4.16 4.16 0 0 1 2.19 4.77z" fill-rule="evenodd"/></svg>